<?xml version="1.0" encoding="iso-8859-1"?>
<!-- Generator: Adobe Illustrator 19.0.0, SVG Export Plug-In . SVG Version: 6.00 Build 0)  -->
<svg version="1.1" id="Capa_1" xmlns="http://www.w3.org/2000/svg" xmlns:xlink="http://www.w3.org/1999/xlink" x="0px" y="0px"
	 viewBox="0 0 359.251 359.251" style="enable-background:new 0 0 359.251 359.251;" xml:space="preserve">
<g>
	<g>
		<path d="M346.35,192.051c-61.6-169.2-220.8-191.6-222.4-192c-3.2-0.4-6.4,1.6-7.2,4.8l-104,345.6c-0.8,2.4,0,5.2,2,7.2
			c1.2,1.2,2.8,1.6,4.4,1.6s2.4-0.4,3.6-0.8l284.8-140.4l35.6-17.6C346.35,198.851,347.55,195.251,346.35,192.051z M30.75,339.651
			l85.6-286c30.8,10.8,73.2,31.2,112.8,68c26.8,24.8,48.8,54,66,87.2L30.75,339.651z M307.55,202.851c-18-34.4-41.2-65.2-69.2-91.2
			c-41.6-38.8-86-60-118-71.2l8-26c27.6,5.6,150,37.6,203.6,176.4L307.55,202.851z"/>
	</g>
</g>
<g>
	<g>
		<path d="M151.15,94.851c-22.4,0-40.8,18.4-40.8,40.8c0,22.4,18.4,40.8,40.8,40.8c22.4,0,40.8-18.4,40.8-40.8
			S173.55,94.851,151.15,94.851z M151.15,162.451c-14.8,0-27.2-12-27.2-27.2c0-15.2,12-27.2,27.2-27.2s27.2,12.4,27.2,27.2
			S165.95,162.451,151.15,162.451z"/>
	</g>
</g>
<g>
	<g>
		<path d="M120.35,206.451c-18.4,0-33.2,14.8-33.2,33.2c0,18.4,14.8,33.2,33.2,33.2c18.4,0,33.2-14.8,33.2-33.2
			C153.55,221.651,138.75,206.451,120.35,206.451z M120.35,259.251c-10.8,0-19.6-8.8-19.6-19.6s8.8-19.6,19.6-19.6
			c10.8,0,19.6,8.8,19.6,19.6C139.95,250.451,131.15,259.251,120.35,259.251z"/>
	</g>
</g>
<g>
	<g>
		<path d="M201.55,183.251c-12.8,0-22.8,10.4-22.8,22.8c0,12.8,10.4,22.8,22.8,22.8c12.4,0,22.8-10.4,22.8-22.8
			C224.75,193.251,214.35,183.251,201.55,183.251z M201.55,215.651c-5.2,0-9.6-4.4-9.6-9.6s4.4-9.6,9.6-9.6s9.6,4.4,9.6,9.6
			S206.75,215.651,201.55,215.651z"/>
	</g>
</g>
<g>
</g>
<g>
</g>
<g>
</g>
<g>
</g>
<g>
</g>
<g>
</g>
<g>
</g>
<g>
</g>
<g>
</g>
<g>
</g>
<g>
</g>
<g>
</g>
<g>
</g>
<g>
</g>
<g>
</g>
</svg>
